{"title":"Little.Black.Spiders.2012.DVDRip.XviD-EXViD","uid":8168197,"size":734302208,"categoryP":"video","categoryS":"movies","magnet":"?xt=urn:btih:838121e577096121dcde064e2482cb22ad8de3d1&amp;dn=Little.Black.Spiders.2012.DVDRip.XviD-EXViD&amp;tr=udp%3A%2F%2Ftracker.openbittorrent.com%3A80&amp;tr=udp%3A%2F%2Fopen.demonii.com%3A1337&amp;tr=udp%3A%2F%2Ftracker.coppersurfer.tk%3A6969&amp;tr=udp%3A%2F%2Fexodus.desync.com%3A6969","seeders":3,"leechers":0,"uploader":".SceNe.","files":1,"time":1361370571,"description":"\nLittle.Black.Spiders.2012.DVDRip.XviD-EXViD\n\nEXViD aims to iNTERNAL those releases which have been lost in the archives\nEXViD aims to PRE non-internal releases which have poor sources and are likely skipped by others\n &lt;a href=&quot;\nhttp://www.imdb.com/title/tt2123996/&quot; rel=&quot;nofollow&quot; target=&quot;_NEW&quot;&gt;\nhttp://www.imdb.com/title/tt2123996/&lt;/a&gt;\nSubtitles: FR, EN, ES\nDate: 2013.02\nDirector: Patrice Toye\n\nGenres: Drama\n\nPlot:\nBelgium, 1978. Katja, Roxy, and a group of other lively girls are too young for love, but still\nalmost mothers. In a hidden location, pregnant teenage girls await the birth of their babies in\nsecret. Some want to put their mistake behind them as soon as possible, but Katja, herself an\norphan, clearly wants something different: she longs to have her own little baby. During the\nlong wait, the girls share each other s joys and sorrows. They form close friendships and\ndistract themselves with strange games until the bubble bursts, and Katja becomes painfully\naware of the plans that the nuns are making behind their backs. She is not going to let this\nhappen to her baby, however... Little Black Spiders is a story about the beauty and strength of\nunexpected friendships\n\nCast:\nLine Pillet ... Katja\nCharlotte De Bruyne ... Roxanne\nDolores Bouckaert ... Cecilia\nIneke Nijssen ... Soeur Simone\nNathalie Marie Verbeke ... Liesbeth\nMartha Vandermeulen ... Sabine\nRomy Lauwers ... Mia (as Romy Louise Lauwers)\nMarjan De Schutter ... Clara\nDorien De Clippel ... Mireille\nFlor Faes ... Baby Katja\nSam Louwyck ... Gardener Henrik\nJoren Seldeslachts ... Motor guy Dirk\nPeter Seynaeve ... Man childless couple\nSara De Bosschere ... Woman childless couple\nSiska Bouwen ... Greet\n\nStats:\nFormat: AVI\nFormat/Info: Audio Video Interleave\nFile size: 700 MiB\nDuration: 1h 33mn\nOverall bit rate: 1 044 Kbps\nWriting application: VirtualDubMod 1.5.10.2 (build 2540/release)\nWriting library: VirtualDubMod build 2540/release\n\nVideo\nID: 0\nFormat: MPEG-4 Visual\nFormat profile: Advanced Simple@L5\nFormat settings, BVOP: Yes\nFormat settings, QPel: No\nFormat settings, GMC: No warppoints\nFormat settings, Matrix: Default (H.263)\nMuxing mode: Packed bitstream\nCodec ID: XVID\nCodec ID/Hint: XviD\nDuration: 1h 33mn\nBit rate: 908 Kbps\nWidth: 640 pixels\nHeight: 272 pixels\nDisplay aspect ratio: 2.35:1\nFrame rate: 25.000 fps\nColor space: YUV\nChroma subsampling: 4:2:0\nBit depth: 8 bits\nScan type: Progressive\nBits/(Pixel*Frame): 0.209\nStream size: 609 MiB (87%)\nWriting library: XviD 64\n\nAudio\nID: 1\nFormat: MPEG Audio\nFormat version: Version 1\nFormat profile: Layer 3\nMode: Joint stereo\nCodec ID: 55\nCodec ID/Hint: MP3\nDuration: 1h 33mn\nBit rate mode: Variable\nBit rate: 123 Kbps\nMinimum bit rate: 128 Kbps\nChannel(s): 2 channels\nSampling rate: 48.0 KHz\nStream size: 82.8 MiB (12%)\nAlignment: Aligned on interleaves\nInterleave, duration: 24 ms (0.60 video frame)\nInterleave, preload duration: 541 ms\nWriting library: LAME4.0a\nEncoding settings: -m j -V 4 -q 5 -lowpass 17.5 --vbr-old -b 128\n\nRelease notes:\nenjoy!","torrent":{"xt":"urn:btih:838121e577096121dcde064e2482cb22ad8de3d1","amp;dn":"Little.Black.Spiders.2012.DVDRip.XviD-EXViD","amp;tr":["udp%3A%2F%2Ftracker.openbittorrent.com%3A80","udp%3A%2F%2Fopen.demonii.com%3A1337","udp%3A%2F%2Ftracker.coppersurfer.tk%3A6969","udp%3A%2F%2Fexodus.desync.com%3A6969"],"infoHash":"838121e577096121dcde064e2482cb22ad8de3d1","infoHashBuffer":{"type":"Buffer","data":[131,129,33,229,119,9,97,33,220,222,6,78,36,130,203,34,173,141,227,209]},"announce":[],"urlList":[]}}